<?xml version="1.0" encoding="utf-8"?>
<!-- Generator: Adobe Illustrator 17.0.2, SVG Export Plug-In . SVG Version: 6.00 Build 0)  -->
<!DOCTYPE svg PUBLIC "-//W3C//DTD SVG 1.1//EN" "http://www.w3.org/Graphics/SVG/1.1/DTD/svg11.dtd">
<svg version="1.1" id="Capa_1" xmlns="http://www.w3.org/2000/svg" xmlns:xlink="http://www.w3.org/1999/xlink" x="0px" y="0px"
	 width="180px" height="180px" viewBox="0 0 180 180" enable-background="new 0 0 180 180" xml:space="preserve">
<g>
	<path fill="#FFFFFF" d="M57.609,121.923c-1.681,4.822-4.52,7.036-8.549,7.036c-5.531,0-9.272-4.397-11.151-12.958
		c-1.006-4.609-1.486-11.783-1.486-21.426c0-10.721,0.419-18.321,1.263-22.737c1.651-8.855,5.184-13.392,10.574-13.59
		c3.431-0.101,6.088,1.759,7.998,5.33C58.151,67.169,59.176,72,59.322,77h6.49c0.078-7-1.32-13.325-4.205-18.238
		c-3.199-5.307-7.497-8.008-12.906-8.008c-7.667,0-12.985,4.839-15.963,14.572c-1.981,6.394-2.974,15.635-2.974,27.733
		c0,12.894,0.887,22.379,2.647,28.482c0.795,2.769,1.829,5.136,3.065,7.119l2.522,3.254c2.887,2.906,6.525,4.369,10.942,4.369
		c6.175,0,10.745-2.532,13.706-8.439c2.6-5.035,3.849-11.845,3.786-19.845h-6.655C59.231,114,58.512,119.158,57.609,121.923z"/>
	<path fill="#FFFFFF" d="M90.001,0C40.295,0,0,40.293,0,89.999C0,139.706,40.295,180,90.001,180C139.705,180,180,139.706,180,89.999
		C180,40.293,139.705,0,90.001,0z M119,162.001v-4.225v-30.229c3,5.815,7.382,8.736,12.973,8.736c8.13,0,13.406-5.248,16.085-15.784
		c1.534-6,2.248-15.704,2.248-29.07c0-11.713-1.028-20.662-3.008-26.86c-2.977-9.26-8.063-13.873-15.758-13.873
		c-5.093,0-9.539,3.125-12.539,9.392V53h-8v111.287c-6,2.031-13.83,3.14-21.413,3.14c-42.762,0-77.221-34.666-77.221-77.427
		c0-42.763,35.101-77.427,77.863-77.427c3.506,0,6.77,0.255,10.77,0.705V60h-0.913c-3.481-6-7.932-8.979-13.353-8.979
		c-12.248,0-18.365,14.009-18.365,42.337c0,12.005,0.902,21.169,2.722,27.657c2.823,10.236,7.963,15.561,15.433,15.561
		c6.459,0,10.998-3.576,13.562-9.576H101v8h6V22.324l0.152,1.194L107,20.037v-3.365v-2.207c35,7.746,60.696,38.612,60.696,75.533
		C167.696,122.705,147,150.652,119,162.001z M118.472,93.044c0-10.519,0.462-17.889,1.366-22.123
		c1.745-8.459,5.633-12.687,11.646-12.687c5.244,0,8.774,4.634,10.61,13.867c0.978,5.015,1.475,12.393,1.475,22.131
		c0,9.433-0.496,16.515-1.475,21.233c-1.835,8.851-5.436,13.286-10.835,13.286c-5.859,0-9.676-4.435-11.421-13.286
		C118.934,111.135,118.472,103.666,118.472,93.044z M100.335,89.947c0,11.308-0.394,19.175-1.145,23.611
		c-1.667,10.111-5.41,15.193-11.179,15.193c-8.67,0-12.997-11.308-12.997-33.934c0-24.391,4.205-36.583,12.652-36.583
		C96.095,58.234,100.335,68.805,100.335,89.947z"/>
</g>
<g>
</g>
<g>
</g>
<g>
</g>
<g>
</g>
<g>
</g>
<g>
</g>
<g>
</g>
<g>
</g>
<g>
</g>
<g>
</g>
<g>
</g>
<g>
</g>
<g>
</g>
<g>
</g>
<g>
</g>
</svg>
