<?xml version="1.0" encoding="utf-8"?>
<!-- Generator: Adobe Illustrator 17.0.2, SVG Export Plug-In . SVG Version: 6.00 Build 0)  -->
<!DOCTYPE svg PUBLIC "-//W3C//DTD SVG 1.1//EN" "http://www.w3.org/Graphics/SVG/1.1/DTD/svg11.dtd">
<svg version="1.1" id="Capa_1" xmlns="http://www.w3.org/2000/svg" xmlns:xlink="http://www.w3.org/1999/xlink" x="0px" y="0px"
	 width="121px" height="121px" viewBox="0 0 121 121" enable-background="new 0 0 121 121" xml:space="preserve">
<g>
	<path fill="#FFFFFF" d="M92.639,90.92c4.175,0,6.96-3.436,8.379-10.295c0.757-3.656,1.14-9.144,1.14-16.454
		c0-7.546-0.384-13.264-1.14-17.15c-1.419-7.155-4.149-10.746-8.205-10.746c-4.65,0-7.657,3.276-9.006,9.832
		c-0.699,3.281-1.056,8.992-1.056,17.143c0,8.231,0.357,14.019,1.056,17.375C85.156,87.484,88.107,90.92,92.639,90.92z"/>
	<path fill="#FFFFFF" d="M73.5,2.358v1.71v2.607l0.118,2.697L73.5,8.447V95.5h-5v-6h0.032c-1.983,5-5.493,7.42-10.488,7.42
		c-5.777,0-9.752-4.044-11.935-11.976c-1.408-5.028-2.105-12.233-2.105-21.536c0-21.952,4.73-32.774,14.202-32.774
		c4.192,0,7.634,1.866,10.326,6.866H68.5V1.437c-2-0.349-5.168-0.547-7.88-0.547c-33.07,0-59.823,26.862-59.823,60
		c0,33.137,26.781,60,59.851,60c5.864,0,11.852-0.859,16.852-2.433V31.5h6v6.211c2-4.856,5.575-7.278,9.514-7.278
		c5.951,0,9.888,3.575,12.191,10.75c1.531,4.803,2.207,11.738,2.207,20.814c0,10.358-0.65,17.877-1.836,22.527
		c-2.072,8.165-5.903,12.231-12.19,12.231c-4.324,0-7.885-2.263-9.885-6.769v23.425v3.274c21-8.794,37.3-30.451,37.3-55.796
		C120.8,32.279,101.5,8.36,73.5,2.358z M39.576,90.048c-2.289,4.577-5.824,6.785-10.599,6.785c-3.416,0-6.229-1.172-8.462-3.424
		l-1.951-2.542c-0.956-1.537-1.756-3.383-2.371-5.529c-1.361-4.73-2.047-12.09-2.047-22.082c0-9.375,0.768-16.549,2.3-21.504
		c2.303-7.543,6.416-11.316,12.345-11.316c4.183,0,7.507,1.979,9.981,6.091c2.231,3.807,3.313,7.974,3.252,13.974h-5.019
		c-0.113-3-0.906-7.465-2.37-10.248c-1.477-2.767-3.532-4.09-6.185-4.012c-4.169,0.153-6.901,3.677-8.178,10.539
		c-0.653,3.423-0.977,9.3-0.977,17.608c0,7.472,0.371,12.996,1.149,16.568c1.454,6.634,4.346,9.963,8.624,9.963
		c3.116,0,5.311-1.723,6.611-5.46c0.699-2.142,1.255-5.958,1.675-10.958h5.147C42.552,80.5,41.586,86.146,39.576,90.048z"/>
	<path fill="#FFFFFF" d="M58.926,36.275c-6.532,0-9.784,9.448-9.784,28.349c0,17.533,3.346,26.296,10.051,26.296
		c4.462,0,7.356-3.938,8.645-11.774c0.581-3.438,0.885-9.534,0.885-18.297C68.723,44.466,65.445,36.275,58.926,36.275z"/>
</g>
<g>
</g>
<g>
</g>
<g>
</g>
<g>
</g>
<g>
</g>
<g>
</g>
<g>
</g>
<g>
</g>
<g>
</g>
<g>
</g>
<g>
</g>
<g>
</g>
<g>
</g>
<g>
</g>
<g>
</g>
</svg>
